<?xml version="1.0" standalone="no"?><!DOCTYPE svg PUBLIC "-//W3C//DTD SVG 1.1//EN" "http://www.w3.org/Graphics/SVG/1.1/DTD/svg11.dtd"><svg t="1711040888042" class="icon" viewBox="0 0 1024 1024" version="1.1" xmlns="http://www.w3.org/2000/svg" p-id="19133" xmlns:xlink="http://www.w3.org/1999/xlink" width="128" height="128"><path d="M785.2 530L595.5 836l-1.9 123.4L703.4 903l189.7-306-107.9-67zM852.1 422.1L807.5 494l107.9 67 44.6-72-107.9-66.9zM533.1 887.1l-86.3-47.2-30.6-16.7-30.6 16.7-86.9 47.3-86.7-47.3-30.6-16.7-30.6 16.7-22.8 12.3V160c0-17.7 14.3-32 32-32h511.6c17.7 0 32 14.3 32 32v320h64V128c0-35.3-26.2-64-58.6-64H122.6C90.2 64 64 92.7 64 128v832l117.2-64 117.3 64L416 896l117 64v-72.9z" p-id="19134" fill="#409eff"></path><path d="M575.6 320H255.9c-17.7 0-32-14.3-32-32s14.3-32 32-32h319.8c17.7 0 32 14.3 32 32-0.1 17.7-14.4 32-32.1 32zM575.6 480H255.9c-17.7 0-32-14.3-32-32s14.3-32 32-32h319.8c17.7 0 32 14.3 32 32-0.1 17.7-14.4 32-32.1 32zM511.7 640H255.9c-17.7 0-32-14.3-32-32s14.3-32 32-32h255.8c17.7 0 32 14.3 32 32s-14.3 32-32 32z" p-id="19135" fill="#409eff"></path></svg>