<?xml version="1.0" standalone="no"?><!DOCTYPE svg PUBLIC "-//W3C//DTD SVG 1.1//EN" "http://www.w3.org/Graphics/SVG/1.1/DTD/svg11.dtd"><svg t="1712126781743" class="icon" viewBox="0 0 1024 1024" version="1.1" xmlns="http://www.w3.org/2000/svg" p-id="33423" xmlns:xlink="http://www.w3.org/1999/xlink" width="200" height="200"><path d="M445.778 512.419c0 17.215 7.092 34.333 19.262 46.502 12.176 12.178 29.292 19.265 46.502 19.265 17.218 0 34.335-7.087 46.505-19.265 12.178-12.169 19.26-29.287 19.26-46.502 0-17.216-7.082-34.326-19.26-46.502-12.17-12.171-29.287-19.264-46.505-19.264-17.209 0-34.326 7.092-46.502 19.264C452.871 478.093 445.778 495.203 445.778 512.419L445.778 512.419zM445.778 512.419" fill="#ffffff" p-id="33424"></path><path d="M511.546 389.427c-15.761 0-31.54 0.288-47.247 0.858 42.403-63.424 87.635-117.846 131.079-157.219 54.588-49.472 94.005-62.967 108.851-54.394 14.917 8.613 22.919 49.722 7.164 122.159-3.318 15.254 6.361 30.308 21.614 33.622 15.251 3.323 30.311-6.357 33.62-21.61 26.098-119.998-4.16-165.82-34.135-183.125-85.621-49.431-230.136 91.238-338.303 265.045-17.656 1.634-35.054 3.646-52.069 6.021-13.476-35.485-23.83-69.416-30.577-100.648-15.55-72.01-7.531-112.892 7.322-121.463 7.26-4.189 20.019-2.828 35.924 3.843 20.831 8.735 45.989 26.164 72.761 50.402 11.57 10.473 29.438 9.588 39.919-1.982 10.477-11.569 9.593-29.446-1.979-39.917-90.443-81.901-145.024-78.539-174.886-61.299-29.889 17.258-60.108 62.902-34.307 182.354 6.646 30.784 16.486 63.874 29.119 98.334-123.924 25.023-215.76 72.187-215.76 140.195 0 34.61 24.555 83.724 141.524 121.125 2.863 0.917 5.758 1.354 8.613 1.354 11.96 0 23.074-7.662 26.915-19.665 4.754-14.868-3.445-30.775-18.315-35.528-70.604-22.581-102.209-50.063-102.209-67.286 0-17.15 31.394-44.533 101.529-67.073 23.98-7.704 50.534-14.303 79.047-19.725 6.927 16.048 14.392 32.279 22.341 48.608-34.545 70.926-59.789 140.05-72.803 200.334-25.801 119.449 4.418 165.095 34.307 182.35 9.971 5.763 22.702 9.969 38.614 9.969 31.616-0.002 75.779-16.629 135.745-70.786 11.584-10.46 12.493-28.338 2.034-39.921-10.467-11.583-28.338-12.49-39.923-2.03-54.258 49.006-93.446 62.334-108.209 53.814-7.269-4.195-12.47-15.944-14.639-33.092-2.849-22.452-0.314-53.012 7.322-88.367 9.764-45.221 27.084-96.086 50.523-149.145 3.241 5.823 6.538 11.644 9.897 17.456 56.671 98.156 122.531 183.614 185.446 240.64 60.323 54.675 104.703 71.435 136.452 71.435 15.909 0 28.647-4.21 38.626-9.973 13.893-8.021 32.106-25.019 39.958-60.44 5.095-22.949 5.418-51.371 0.971-84.47-8.48-63.163-33.43-140.121-72.158-222.562-6.639-14.129-23.475-20.204-37.604-13.569-14.126 6.635-20.197 23.471-13.558 37.602 35.781 76.177 59.683 149.357 67.3 206.052 4.645 34.604 3.983 78.527-13.173 88.434-7.271 4.197-20.049 2.823-35.978-3.861-20.869-8.765-46.069-26.237-72.873-50.531-58.688-53.189-120.64-133.811-174.455-227.02-10.074-17.451-19.625-34.929-28.607-52.317 8.982-17.393 18.534-34.87 28.607-52.323 2.196-3.807 4.41-7.584 6.636-11.342 27.282-1.838 55.392-2.791 83.987-2.791 107.628 0 208.429 13.347 283.834 37.578 70.136 22.535 101.529 49.923 101.529 67.072 0 8.347-7.509 18.671-21.145 29.074-17.868 13.636-45.385 26.677-79.568 37.729-14.849 4.802-23.001 20.733-18.199 35.586 4.809 14.85 20.738 23.003 35.584 18.196 115.593-37.36 139.858-86.201 139.858-120.585C953.439 444.791 731.138 389.427 511.546 389.427L511.546 389.427zM511.542 310.518" fill="#ffffff" p-id="33425"></path></svg>