<?xml version="1.0" standalone="no"?><!DOCTYPE svg PUBLIC "-//W3C//DTD SVG 1.1//EN" "http://www.w3.org/Graphics/SVG/1.1/DTD/svg11.dtd"><svg t="1712055185697" class="icon" viewBox="0 0 1024 1024" version="1.1" xmlns="http://www.w3.org/2000/svg" p-id="1230" xmlns:xlink="http://www.w3.org/1999/xlink" width="48" height="48"><path d="M812.2 370.3l-124.5-0.6c5.6-18.1 13.2-45.7 17.2-73.7 4.6-32.1 5.7-58.9 3-77.6-4.4-31-17.5-57.9-37.8-78-22.1-21.9-50.7-33.4-82.6-33.4h-1.6c-2 0.1-19.7 1.2-39 8.4-30.2 11.3-49.6 32.4-54.7 59.3l-0.6 3.1 0.1 3.2c0.9 34.2-8.9 95.1-15.7 117.9-1.6 5.5-13.6 24.1-33.9 42.4-20 18-40.5 28.8-55 28.8l-32.9 4.8c-17.6 3.8-31.5 17.1-36.1 34.5-2 7.6-3 15.2-3 21.3l0.6 388.7c0 19.4 9.2 37.6 24.7 49.2l10.1 7.6c11 8.2 24.3 12.7 38.1 12.7h338.3c64.8 0 116-49.2 130.4-125.3 10.2-53.9 59.3-279.3 59.8-281.6l0.7-3.2v-3.2c-0.2-58-47.4-105.3-105.6-105.3zM240.1 888.8h-59.2c-31.3 0-56.9-25.6-56.9-56.9v-405c0-31.3 25.6-56.9 56.9-56.9h59.2c31.3 0 56.9 25.6 56.9 56.9V832c0 31.2-25.6 56.8-56.9 56.8z" fill="#1296db" p-id="1231"></path></svg>