<?xml version="1.0" standalone="no"?><!DOCTYPE svg PUBLIC "-//W3C//DTD SVG 1.1//EN" "http://www.w3.org/Graphics/SVG/1.1/DTD/svg11.dtd"><svg t="1711038172175" class="icon" viewBox="0 0 1365 1024" version="1.1" xmlns="http://www.w3.org/2000/svg" p-id="6190" id="mx_n_1711038172176" xmlns:xlink="http://www.w3.org/1999/xlink" width="170.625" height="128"><path d="M541.422933 589.482667a299.895467 299.895467 0 0 0 191.351467-279.3472c0-165.888-134.3488-300.373333-299.895467-300.373334a300.2368 300.2368 0 0 0-299.895466 300.373334 299.895467 299.895467 0 0 0 191.351466 279.3472A433.083733 433.083733 0 0 0 0 1008.8448h59.733333c0-205.960533 167.594667-373.828267 373.1456-373.828267s373.1456 167.936 373.1456 373.828267h59.733334c0.682667-201.864533-137.762133-371.0976-324.266667-419.362133zM193.399467 310.135467A240.8448 240.8448 0 0 1 433.493333 69.495467a240.8448 240.8448 0 0 1 240.162134 240.64 240.8448 240.8448 0 0 1-240.162134 240.571733 241.2544 241.2544 0 0 1-240.162133-240.571733z" fill="#3180cc" p-id="6191"></path><path d="M1286.485333 1016.149333H1017.173333v-54.408533h269.312c13.585067 0 24.439467-10.922667 24.439467-24.439467V78.848c0-13.653333-10.922667-24.507733-24.439467-24.507733H654.677333V0h631.739734C1329.9712 0 1365.333333 35.362133 1365.333333 78.848V937.301333a79.325867 79.325867 0 0 1-78.848 78.848z" fill="#3180cc" p-id="6192"></path><path d="M783.291733 181.8624h424.413867v61.781333h-424.413867v-61.781333z m0 192.7168h424.413867v61.781333h-424.413867v-61.781333z m111.4112 206.301867h313.002667v61.781333h-313.002667v-61.781333z" fill="#3180cc" p-id="6193"></path></svg>