<?xml version="1.0" standalone="no"?><!DOCTYPE svg PUBLIC "-//W3C//DTD SVG 1.1//EN" "http://www.w3.org/Graphics/SVG/1.1/DTD/svg11.dtd"><svg t="1711040799529" class="icon" viewBox="0 0 1024 1024" version="1.1" xmlns="http://www.w3.org/2000/svg" p-id="16568" xmlns:xlink="http://www.w3.org/1999/xlink" width="128" height="128"><path d="M496 740.8v-52c-35.2-4-72.8-19.2-99.2-40.8l-3.2-2.4 25.6-32.8 3.2 2.4c29.6 23.2 59.2 34.4 89.6 34.4 42.4 0 65.6-18.4 65.6-52.8 0-40.8-37.6-57.6-76.8-75.2-44.8-20-90.4-40.8-90.4-96.8C410.4 379.2 444.8 344 496 336v-52.8h40.8v52c40 4.8 64.8 23.2 81.6 40l3.2 3.2-28.8 28.8-2.4-2.4c-21.6-19.2-39.2-28.8-71.2-28.8-34.4 0-57.6 19.2-57.6 48.8 0 33.6 32.8 48 70.4 64 45.6 20 97.6 41.6 97.6 107.2 0 50.4-35.2 85.6-92 93.6v52.8H496z" fill="#409eff" p-id="16569"></path><path d="M512 928.8c-229.6 0-416.8-187.2-416.8-416.8 0-229.6 187.2-416.8 416.8-416.8 229.6 0 416.8 187.2 416.8 416.8 0 229.6-187.2 416.8-416.8 416.8z m0-791.2c-206.4 0-374.4 168-374.4 374.4 0 206.4 168 374.4 374.4 374.4 206.4 0 374.4-168 374.4-374.4 0-206.4-168-374.4-374.4-374.4z" fill="#409eff" p-id="16570"></path><path d="M512 853.6c-12 0-21.6-9.6-21.6-21.6s9.6-21.6 21.6-21.6c164 0 297.6-133.6 297.6-297.6 0-45.6-10.4-89.6-30.4-130.4-2.4-5.6-3.2-11.2-0.8-16.8 1.6-5.6 5.6-9.6 11.2-12.8 3.2-1.6 6.4-2.4 9.6-2.4 8.8 0 16 4.8 19.2 12 23.2 47.2 34.4 96.8 34.4 149.6 0.8 188-152.8 341.6-340.8 341.6zM735.2 304.8c-5.6 0-11.2-2.4-15.2-6.4-56-54.4-129.6-84.8-208-84.8-12 0-21.6-9.6-21.6-21.6s9.6-21.6 21.6-21.6c89.6 0 174.4 34.4 238.4 96.8 4 4 6.4 9.6 6.4 15.2s-2.4 11.2-6.4 15.2c-4 4.8-9.6 7.2-15.2 7.2zM388 828c-3.2 0-5.6-0.8-8.8-1.6C252.8 772.8 170.4 649.6 170.4 512c0-132.8 78.4-255.2 199.2-310.4 3.2-1.6 5.6-1.6 8.8-1.6 8.8 0 16 4.8 20 12.8 4.8 11.2 0 24-10.4 28.8-105.6 48-173.6 154.4-173.6 270.4 0 120 71.2 228 182.4 274.4 5.6 2.4 9.6 6.4 12 12 2.4 5.6 2.4 11.2 0 16.8-4.8 8-12 12.8-20.8 12.8z" fill="#409eff" p-id="16571"></path></svg>