<?xml version="1.0" standalone="no"?><!DOCTYPE svg PUBLIC "-//W3C//DTD SVG 1.1//EN" "http://www.w3.org/Graphics/SVG/1.1/DTD/svg11.dtd"><svg t="1711041658148" class="icon" viewBox="0 0 1024 1024" version="1.1" xmlns="http://www.w3.org/2000/svg" p-id="21972" xmlns:xlink="http://www.w3.org/1999/xlink" width="128" height="128"><path d="M862.315789 0a161.684211 161.684211 0 0 1 161.684211 161.684211v700.631578a161.684211 161.684211 0 0 1-161.684211 161.684211H161.684211a161.684211 161.684211 0 0 1-161.684211-161.684211V161.684211a161.684211 161.684211 0 0 1 161.684211-161.684211h700.631578z m0 80.842105H161.684211a80.842105 80.842105 0 0 0-80.707369 76.099369L80.842105 161.684211v700.631578a80.842105 80.842105 0 0 0 76.099369 80.707369L161.684211 943.157895h700.631578a80.842105 80.842105 0 0 0 80.707369-76.099369L943.157895 862.315789V161.684211a80.842105 80.842105 0 0 0-76.099369-80.707369L862.315789 80.842105z m-26.947368 727.578948a26.947368 26.947368 0 0 1 0 53.894736H188.631579a26.947368 26.947368 0 0 1 0-53.894736h646.736842z m-215.578947-134.736842a26.947368 26.947368 0 0 1 0 53.894736H188.631579a26.947368 26.947368 0 0 1 0-53.894736h431.157895zM372.682105 267.668211l4.71579 3.072 265.997473 187.850105 39.154527-24.333474a80.842105 80.842105 0 0 1 88.414316 1.994105l4.554105 3.368421 103.289263 82.081685a26.947368 26.947368 0 0 1-30.773895 44.139789l-2.775579-1.94021-103.262316-82.081685a26.947368 26.947368 0 0 0-28.025263-3.395368l-2.96421 1.616842-69.497263 43.196632-295.181474-208.464842a26.947368 26.947368 0 0 0-29.372632-1.104843l-2.96421 2.021053-135.060211 107.250526a26.947368 26.947368 0 0 1-36.028631-39.936l2.533052-2.263579 135.060211-107.250526a80.842105 80.842105 0 0 1 92.186947-5.820631zM727.578947 134.736842a107.789474 107.789474 0 1 1 0 215.578947 107.789474 107.789474 0 0 1 0-215.578947z m0 53.894737a53.894737 53.894737 0 1 0 0 107.789474 53.894737 53.894737 0 0 0 0-107.789474z" fill="#409eff" p-id="21973"></path></svg>