<?xml version="1.0" standalone="no"?><!DOCTYPE svg PUBLIC "-//W3C//DTD SVG 1.1//EN" "http://www.w3.org/Graphics/SVG/1.1/DTD/svg11.dtd"><svg t="1711967687883" class="icon" viewBox="0 0 1024 1024" version="1.1" xmlns="http://www.w3.org/2000/svg" p-id="1377" xmlns:xlink="http://www.w3.org/1999/xlink" width="48" height="48"><path d="M849.170732 0c97.404878 0 174.829268 77.42439 174.829268 174.829268v674.341464c0 97.404878-77.42439 174.829268-174.829268 174.829268H174.829268c-97.404878 0-174.829268-77.42439-174.829268-174.829268V174.829268c0-97.404878 77.42439-174.829268 174.829268-174.829268h674.341464zM492.019512 284.721951h-159.843902l22.478049 24.97561-9.990244 77.42439H274.731707l-9.990244 69.931708h69.931708l-19.980488 142.360975H244.760976l-9.990244 69.931707h67.434146l-14.985366 104.897561H424.585366l14.985366-104.897561h102.4l-14.985366 104.897561h137.365854l14.985365-104.897561h67.434147l9.990244-69.931707h-67.434147l19.980488-139.863414H774.243902l9.990244-69.931708h-67.434146l14.985366-104.897561h-162.341464l22.478049 27.473171-9.990244 77.42439h-102.4l12.487805-104.897561z m79.921951 174.829269l-19.980487 139.863414H449.560976l19.980487-139.863414h102.4z" fill="#639EF6" p-id="1378"></path></svg>