<?xml version="1.0" standalone="no"?><!DOCTYPE svg PUBLIC "-//W3C//DTD SVG 1.1//EN" "http://www.w3.org/Graphics/SVG/1.1/DTD/svg11.dtd"><svg t="1711040763250" class="icon" viewBox="0 0 1024 1024" version="1.1" xmlns="http://www.w3.org/2000/svg" p-id="15455" xmlns:xlink="http://www.w3.org/1999/xlink" width="128" height="128"><path d="M511.705799 959.487707 511.705799 959.487707c-119.599935 0-232.03468-46.581921-316.622194-131.135666C110.529861 743.763504 63.980685 631.362528 63.980685 511.762593c0-246.883877 200.823841-447.741487 447.691345-447.741487 119.598912 0 232.03468 46.565549 316.588425 131.135666 84.587514 84.553745 131.169435 196.989513 131.169435 316.589448 0 119.581516-46.581921 232.017284-131.134643 316.572052C743.707734 912.905786 631.305735 959.487707 511.705799 959.487707L511.705799 959.487707zM511.705799 132.901893c-208.92945 0-378.844328 169.948647-378.844328 378.8607 0 101.201913 39.385009 196.349947 110.922299 267.889283C315.355853 851.189166 410.470117 890.606921 511.705799 890.606921l0 0c101.168144 0 196.35097-39.417755 267.854491-110.988814 71.571059-71.53729 110.989837-166.686347 110.989837-267.871887 0-101.201913-39.418778-196.333574-110.989837-267.88826C708.021977 172.303274 612.873943 132.901893 511.705799 132.901893z" fill="#409eff" p-id="15456"></path><path d="M671.361009 752.845347c-5.381567 0-10.829649-1.279133-15.807011-3.834328l-143.815453-74.194816-143.881968 74.194816c-11.603269 5.918803-25.628704 4.877077-36.189224-2.859118-10.526751-7.736195-15.740496-20.786419-13.520945-33.666774l27.309996-156.343791L229.624283 445.270203c-9.55154-9.114588-13.050224-22.870894-9.014304-35.433 4.03592-12.544711 14.900362-21.693068 27.949562-23.559579l160.666236-22.887266 71.705112-142.655024c11.704576-23.240307 49.844222-23.240307 61.548798 0l71.705112 142.655024 160.698982 22.887266c13.050224 1.866511 23.879873 11.014868 27.915793 23.559579 4.03592 12.562107 0.537236 26.318412-8.946766 35.433L677.954171 556.141336l27.309996 156.343791c2.286066 12.881378-2.960425 25.931602-13.520945 33.666774C685.723112 750.591003 678.558945 752.845347 671.361009 752.845347zM511.738545 601.630367c5.381567 0 10.829649 1.279133 15.774265 3.834328l97.973382 50.516534-18.532075-106.077967c-1.983167-11.31879 1.816369-22.870894 10.124592-30.825053l77.961606-74.597999-108.365056-15.421224c-11.166317-1.597381-20.852934-8.559956-25.931602-18.632359l-49.004087-97.535407-49.036833 97.535407c-5.045923 10.073426-14.731516 17.034978-25.897833 18.632359l-108.36608 15.421224 77.962629 74.597999c8.273431 7.954159 12.07399 19.507286 10.088776 30.825053l-18.531052 106.077967 97.973382-50.516534C500.908896 602.909499 506.290463 601.630367 511.738545 601.630367z" fill="#409eff" p-id="15457"></path></svg>