<?xml version="1.0" standalone="no"?><!DOCTYPE svg PUBLIC "-//W3C//DTD SVG 1.1//EN" "http://www.w3.org/Graphics/SVG/1.1/DTD/svg11.dtd"><svg t="1711364638667" class="icon" viewBox="0 0 1066 1024" version="1.1" xmlns="http://www.w3.org/2000/svg" p-id="2251" xmlns:xlink="http://www.w3.org/1999/xlink" width="49.96875" height="48"><path d="M625.152 57.856L129.578667 553.429333a128 128 0 0 0-34.218667 61.738667L41.045333 850.474667c-21.290667 92.16 61.312 174.805333 153.514667 153.514666l235.306667-54.314666a128 128 0 0 0 61.738666-34.218667l12.885334-12.885333-362.026667-362.026667 60.330667-60.330667 362.026666 362.026667 271.530667-271.530667-362.026667-362.026666 60.330667-60.330667 362.026667 362.026667 90.496-90.453334a128 128 0 0 0 0-181.034666l-181.034667-181.034667a128 128 0 0 0-180.992 0z" p-id="2252" fill="#ffffff"></path></svg>