<?xml version="1.0" standalone="no"?><!DOCTYPE svg PUBLIC "-//W3C//DTD SVG 1.1//EN" "http://www.w3.org/Graphics/SVG/1.1/DTD/svg11.dtd"><svg t="1711800782668" class="icon" viewBox="0 0 1024 1024" version="1.1" xmlns="http://www.w3.org/2000/svg" p-id="7379" xmlns:xlink="http://www.w3.org/1999/xlink" width="200" height="200"><path d="M798.99 928.22H225.64C155.26 928.22 98 870.96 98 800.58V227.23c0-70.38 57.26-127.64 127.64-127.64h573.35c70.38 0 127.64 57.26 127.64 127.64v573.35c0 70.38-57.26 127.64-127.64 127.64zM225.64 170.13c-31.49 0-57.1 25.62-57.1 57.1v573.35c0 31.49 25.62 57.1 57.1 57.1h573.35c31.49 0 57.1-25.62 57.1-57.1V227.23c0-31.49-25.62-57.1-57.1-57.1H225.64z" fill="#ffffff" p-id="7380"></path><path d="M606.8 693.32h-85.31L494 609.19H360.59l-27.01 84.12h-84.84L383.1 326.25h91.94L606.8 693.32zM475.52 548.77l-41.71-127.25c-2.69-8.06-4.58-18.72-5.69-31.99h-2.13c-0.95 10.75-3.08 21.09-6.4 31.04l-41.94 128.2h97.87zM731.2 326.25v367.06H653V326.25h78.2z" fill="#ffffff" p-id="7381"></path><path d="M606.8 666.01h-85.31L494 581.89H360.59l-27.01 84.12h-84.84L383.1 298.95h91.94L606.8 666.01zM475.52 521.46l-41.71-127.25c-2.69-8.06-4.58-18.72-5.69-31.99h-2.13c-0.95 10.75-3.08 21.09-6.4 31.04l-41.94 128.2h97.87zM731.2 298.95v367.06H653V298.95h78.2z" fill="#ffffff" p-id="7382"></path></svg>