<?xml version="1.0" standalone="no"?><!DOCTYPE svg PUBLIC "-//W3C//DTD SVG 1.1//EN" "http://www.w3.org/Graphics/SVG/1.1/DTD/svg11.dtd"><svg t="1712715493034" class="icon" viewBox="0 0 1024 1024" version="1.1" xmlns="http://www.w3.org/2000/svg" p-id="1269" xmlns:xlink="http://www.w3.org/1999/xlink" width="48" height="48"><path d="M794.482759 273.655172l-70.62069-176.551724H300.137931l-70.62069 176.551724H67.072A67.089655 67.089655 0 0 0 0 340.727172v518.497104A67.672276 67.672276 0 0 0 67.672276 926.896552h888.637793a67.672276 67.672276 0 0 0 67.672276-67.672276V340.727172A67.089655 67.089655 0 0 0 956.910345 273.655172H794.482759z" fill="#556080" p-id="1270"></path><path d="M512 556.137931m-300.137931 0a300.137931 300.137931 0 1 0 600.275862 0 300.137931 300.137931 0 1 0-600.275862 0Z" fill="#424A60" p-id="1271"></path><path d="M512 556.137931m-194.206897 0a194.206897 194.206897 0 1 0 388.413794 0 194.206897 194.206897 0 1 0-388.413794 0Z" fill="#7383BF" p-id="1272"></path><path d="M105.931034 185.37931h70.62069v88.275862H105.931034z" fill="#38454F" p-id="1273"></path><path d="M900.413793 397.241379m-52.965517 0a52.965517 52.965517 0 1 0 105.931034 0 52.965517 52.965517 0 1 0-105.931034 0Z" fill="#EFCE4A" p-id="1274"></path><path d="M564.965517 556.137931c0 63.470345 25.035034 119.666759 63.558621 155.10069 47.086345-35.433931 77.682759-91.630345 77.682759-155.10069s-30.596414-119.666759-77.682759-155.10069c-38.523586 35.433931-63.558621 91.630345-63.558621 155.10069zM317.793103 556.137931c0 63.470345 30.596414 119.666759 77.682759 155.10069 38.523586-35.433931 63.558621-91.630345 63.558621-155.10069s-25.035034-119.666759-63.558621-155.10069c-47.086345 35.433931-77.682759 91.630345-77.682759 155.10069z" fill="#879AD8" p-id="1275"></path><path d="M512 768c-116.824276 0-211.862069-95.037793-211.862069-211.862069s95.037793-211.862069 211.862069-211.862069 211.862069 95.037793 211.862069 211.862069-95.037793 211.862069-211.862069 211.862069z m0-388.413793c-97.350621 0-176.551724 79.201103-176.551724 176.551724s79.201103 176.551724 176.551724 176.551724 176.551724-79.201103 176.551724-176.551724-79.201103-176.551724-176.551724-176.551724z" fill="#556080" p-id="1276"></path><path d="M538.482759 494.344828m-61.793104 0a61.793103 61.793103 0 1 0 123.586207 0 61.793103 61.793103 0 1 0-123.586207 0Z" fill="#4674E8" p-id="1277"></path><path d="M494.344828 520.827586m-35.310345 0a35.310345 35.310345 0 1 0 70.620689 0 35.310345 35.310345 0 1 0-70.620689 0Z" fill="#BF4D90" p-id="1278"></path><path d="M441.37931 485.517241m-35.310344 0a35.310345 35.310345 0 1 0 70.620689 0 35.310345 35.310345 0 1 0-70.620689 0Z" fill="#BCCEF7" p-id="1279"></path></svg>