<?xml version="1.0" standalone="no"?><!DOCTYPE svg PUBLIC "-//W3C//DTD SVG 1.1//EN" "http://www.w3.org/Graphics/SVG/1.1/DTD/svg11.dtd"><svg t="1711040840976" class="icon" viewBox="0 0 1024 1024" version="1.1" xmlns="http://www.w3.org/2000/svg" p-id="17665" xmlns:xlink="http://www.w3.org/1999/xlink" width="128" height="128"><path d="M989 419.6c-16.4-41-41.9-77.9-75.9-109.6-36.1-34-82.9-61.5-139.1-81.7-3.4-1.6-7.3-1.6-9.9-1.6-12.6 0-24.2 8.3-28.2 20.2-2.6 7.2-2.1 15.3 1.3 22.4 3.5 7.3 9.7 12.8 17.5 15.4 88.3 31.1 149 84.2 180.3 157.9 26.9 62.5 25.4 128.6 22.1 162.5-4 47.6-16 87.5-23 102.7-27 57-114.2 191.2-142.9 235.3l-1.2 1.8H683.5v-40.4c0-9.2-3.9-17.4-10.9-23l-0.2-0.1c-5.6-4.2-12.2-6.6-18.6-6.6H649l-0.6 0.1c-35.7 6.8-72.4 10.2-108.9 10.2-18.9 0-36.1-1-51.1-2.9-1.5-0.2-1.9-0.2-2.5-0.2h-4.1c-8.7 0-17.7 4.3-23 10.9l-35 43.7H314.6v-98.1c0-13.1-7.9-24.2-20.3-28.3-46.6-14.9-86.2-46-121.1-95.3-23.5-32.6-35.9-63.3-37.8-69v-0.2l-0.4-1.1c-2.9-8.7-8.8-15-16.5-17.7l-52.2-22.8V497.3h41.4c13.1 0 24.2-7.9 28.3-20.3 20.1-62.8 78.3-112.1 95.6-125.7 0.6-0.4 0.9-0.7 1.1-0.9 6-4.9 10.3-12.4 11.7-20.7l0.1-0.6v-0.6c0-7.9-2.7-15.7-7.7-21.9l-0.4-0.4c-30.5-32.3-38.8-59.6-40.2-77.3 15.8-3.9 31.3-5.7 48.5-5.7 42.5 0 93.4 11.2 143.1 31.4 1.6 0.6 2.5 1 3.2 1.2 3.4 1.1 7.1 2.3 11.3 2.3H405.2c4.4-0.5 8.9-0.7 13.5-1 4.7-0.3 9.5-0.5 14.3-1.1l0.4-0.1c7.2-1.2 13.7-4.6 19.3-10.2 4.8-4.8 7.2-11.9 7.2-21.4v-0.6c-1.4-16.3-13.8-28.1-29.6-28.1h-2.6l-0.5 0.1c-3.4 0.5-6.7 0.7-10.3 1-3.5 0.2-7.1 0.5-10.8 1h-0.1c-13.1-5.7-84.5-35-162.2-35-32.9 0-61 4.5-85.8 13.8-8.2 2.8-15 9.6-17.7 17.8-4.5 13.4-15.3 62.2 32.4 128.2-40.3 36.9-69.3 75.7-86.3 115.3H36.7C20.3 438 7 451.3 7 467.6v156.6c0 11.8 7.5 23.1 17.8 27.1L84.1 677c18.1 41.6 70.7 141.4 172.2 183.3v106.9c0 16.4 13.3 29.7 29.7 29.7h153.5c8.7 0 17.7-4.3 23-10.9l33.9-42.6c13 1 28.1 1.9 43.1 1.9 26.8 0 55.3-2 84.7-6v36.1c0 13.9 9.7 25.7 22.7 28.8v1.9h160.5c10.3 0 19.8-5 25.4-13.4l0.4-0.7c0.9-1.7 8.1-13.1 16.5-26.3 33.4-52.5 111.6-175.3 136-231.4 12.9-25.8 24.7-75.2 29.5-122.8v-0.1c4.2-48.8 3-121.8-26.2-191.8z" p-id="17666" fill="#409eff"></path><path d="M234 472.1c0 31.5 25.6 57.1 57.1 57.1s57.1-25.6 57.1-57.1c0-32-25.1-57.1-57.1-57.1S234 440.1 234 472.1zM469 276.4c-0.5 0.1-0.9 0.2-1.2 0.3h-0.7l-1.3 0.5c-6.7 2.7-12.8 7.9-16.4 13.9-4.2 7-5.2 15-2.8 22.5 2.9 12.1 14.8 21.2 27.8 21.2 2.2 0 5.2 0 8.4-1.4 3.9-1 30.4-7.6 69.7-7.6 52.3 0 102.3 10.3 148.5 30.5l0.6 0.2c3.3 1.1 7.1 2.4 11.2 2.4 11.1 0 21.6-6.1 28-16.3l0.4-0.6 0.3-0.7c5.4-14.8-1.5-31.4-15.7-37.8-11.1-5.1-23.7-9.9-37.7-14.4 18.2-13.7 33.3-31.3 43.7-51.2 11.2-21.3 17.1-45.3 17.1-69.4 0-39.7-15.2-76.9-42.7-104.9-27.6-28-64.4-43.4-103.6-43.4-81.2 0-147.3 66.5-147.3 148.3 0 38.2 14.8 74.5 41.7 102.7-14 1.6-23.7 4.1-28 5.2z m45.5-107.9c0-49.7 39.6-90.2 88.2-90.2s88.2 40.5 88.2 90.2-39.6 90.2-88.2 90.2-88.2-40.5-88.2-90.2z" p-id="17667" fill="#409eff"></path></svg>