<?xml version="1.0" standalone="no"?><!DOCTYPE svg PUBLIC "-//W3C//DTD SVG 1.1//EN" "http://www.w3.org/Graphics/SVG/1.1/DTD/svg11.dtd"><svg t="1711364658751" class="icon" viewBox="0 0 1066 1024" version="1.1" xmlns="http://www.w3.org/2000/svg" p-id="2446" xmlns:xlink="http://www.w3.org/1999/xlink" width="49.96875" height="48"><path d="M532.821333 981.333333c259.2 0 469.333333-210.133333 469.333334-469.333333s-210.133333-469.333333-469.333334-469.333333-469.333333 210.133333-469.333333 469.333333 210.133333 469.333333 469.333333 469.333333zM365.738667 376.746667a42.666667 42.666667 0 0 1 53.12-53.162667l157.397333 47.232a42.666667 42.666667 0 0 1 17.92 70.997333l-110.165333 110.165334a42.666667 42.666667 0 0 1-71.04-17.92L365.738667 376.746667z m148.437333 205.44l110.122667-110.165334a42.666667 42.666667 0 0 1 71.04 17.92l47.232 157.354667a42.666667 42.666667 0 0 1-53.12 53.12L532.053333 653.226667a42.666667 42.666667 0 0 1-17.92-71.04z" p-id="2447" fill="#ffffff"></path></svg>