<?xml version="1.0" standalone="no"?><!DOCTYPE svg PUBLIC "-//W3C//DTD SVG 1.1//EN" "http://www.w3.org/Graphics/SVG/1.1/DTD/svg11.dtd"><svg t="1711364579290" class="icon" viewBox="0 0 1066 1024" version="1.1" xmlns="http://www.w3.org/2000/svg" p-id="1860" xmlns:xlink="http://www.w3.org/1999/xlink" width="49.96875" height="48"><path d="M532.821333 85.333333c-235.648 0-426.666667 191.018667-426.666666 426.666667 0 74.794667 19.242667 145.066667 53.034666 206.208 6.4 1.706667 20.736 4.778667 28.16 5.845333 20.693333 2.986667 51.968 1.621333 93.312-6.784 82.005333-16.64 189.226667-58.112 300.586667-121.898666 111.36-63.829333 201.130667-135.296 256.64-197.461334 28.032-31.36 44.8-57.6 52.565333-76.885333 1.493333-3.626667 4.138667-9.088 6.656-14.336 1.706667-3.413333 3.285333-6.741333 4.48-9.386667A426.496 426.496 0 0 0 532.821333 85.333333z m2.218667 288c-65.792 0-118.613333 52.821333-118.613333 117.333334a42.666667 42.666667 0 1 1-85.333334 0c0-112.213333 91.605333-202.666667 203.946667-202.666667a42.666667 42.666667 0 1 1 0 85.333333zM955.946667 456.832c-6.954667 8.746667-14.293333 17.408-21.973334 26.026667-66.858667 74.837333-168.448 154.410667-288.384 223.146666-119.893333 68.736-240.085333 116.266667-338.858666 136.32-12.16 2.474667-24.234667 4.608-36.138667 6.272A424.832 424.832 0 0 0 532.821333 938.666667c235.648 0 426.666667-191.018667 426.666667-426.666667 0-18.688-1.194667-37.12-3.541333-55.168z" p-id="1861" fill="#ffffff"></path><path d="M81.109333 651.434667c4.778667-10.197333 10.453333-20.48 16.981334-30.976 9.514667 38.186667 23.893333 74.453333 42.496 108.074666l4.352 7.850667 8.704 2.389333c7.168 1.962667 22.4 5.162667 30.677333 6.4 24.064 3.413333 58.026667 1.706667 100.608-6.997333 84.778667-17.194667 194.176-59.648 306.986667-124.330667 30.293333-17.365333 59.093333-35.328 86.101333-53.546666 73.514667-49.621333 133.930667-101.205333 175.914667-148.266667 28.885333-32.298667 47.402667-60.586667 56.448-83.072l0.682666-1.792a381.866667 381.866667 0 0 1 5.290667-11.178667l0.085333-0.170666c1.578667-3.285333 3.285333-6.826667 4.608-9.728l4.565334-10.069334-5.546667-9.514666a449.621333 449.621333 0 0 0-73.216-94.037334c10.496-0.256 20.608-0.042667 30.293333 0.682667 42.752 3.2 88.149333 17.536 111.488 57.685333 20.565333 35.370667 15.018667 75.52 1.194667 109.952-14.08 34.986667-39.509333 71.68-71.850667 107.904-64.981333 72.746667-164.565333 150.954667-283.093333 218.88-23.125333 13.226667-46.208 25.685333-69.12 37.248-94.549333 47.786667-186.026667 80.938667-263.253333 96.64-11.776 2.389333-23.424 4.394667-34.858667 5.973334l-6.741333 0.981333c-32.128 4.096-62.08 4.693333-88.533334 0.896-36.949333-5.333333-74.752-20.650667-95.317333-55.978667-22.826667-39.253333-13.610667-84.309333 4.053333-121.898666z" p-id="1862" fill="#ffffff"></path></svg>