<?xml version="1.0" standalone="no"?><!DOCTYPE svg PUBLIC "-//W3C//DTD SVG 1.1//EN" "http://www.w3.org/Graphics/SVG/1.1/DTD/svg11.dtd"><svg t="1711973783875" class="icon" viewBox="0 0 1024 1024" version="1.1" xmlns="http://www.w3.org/2000/svg" p-id="3359" xmlns:xlink="http://www.w3.org/1999/xlink" width="48" height="48"><path d="M794.9312 293.8368a30.72 30.72 0 0 0-53.6576 16.9472c-3.4304 31.4368-25.344 71.168-60.0064 101.5808 7.2704-59.392 3.1744-111.2576-12.288-157.184-26.4704-78.6944-87.04-141.7216-180.8896-187.392a52.7872 52.7872 0 0 0-68.3008 20.48c-15.0528 25.6-59.7504 87.7056-190.0544 214.3232-103.3728 100.5056-149.76 236.9536-124.0064 364.9536 23.552 116.992 103.8336 210.3296 220.16 256a501.76 501.76 0 0 0 184.6272 35.84c142.8992 0 254.5152-63.7952 304.0256-110.2336a367.872 367.872 0 0 0 101.4272-177.4592c20.5312-85.8112 15.872-221.1328-121.0368-377.856zM373.76 738.3552a35.84 35.84 0 0 1-50.2784-6.5536c-100.864-131.1232-41.472-245.76 4.0448-287.9488a35.84 35.84 0 0 1 48.9472 52.3776c-8.6528 8.2944-80.1792 82.6368 3.84 191.8976a35.84 35.84 0 0 1-6.5536 50.2272z" fill="#d81e06" p-id="3360"></path></svg>