<?xml version="1.0" standalone="no"?><!DOCTYPE svg PUBLIC "-//W3C//DTD SVG 1.1//EN" "http://www.w3.org/Graphics/SVG/1.1/DTD/svg11.dtd"><svg t="1711040636576" class="icon" viewBox="0 0 1024 1024" version="1.1" xmlns="http://www.w3.org/2000/svg" p-id="11721" xmlns:xlink="http://www.w3.org/1999/xlink" width="128" height="128"><path d="M306.688 582.656c-18.944 0-34.816 15.36-34.816 34.816 0 18.944 15.36 34.816 34.816 34.816h68.608c18.944 0 34.816-15.36 34.816-34.816 0-18.944-15.36-34.816-34.816-34.816H306.688zM552.448 449.024h-245.76c-18.944 0-34.816 15.36-34.816 34.816 0 18.944 15.36 34.816 34.816 34.816h245.76c18.944 0 34.816-15.36 34.816-34.816 0-18.944-15.872-34.816-34.816-34.816z" p-id="11722" fill="#409eff"></path><path d="M870.912 33.28H159.744c-35.328 0-64.512 28.672-64.512 64.512v829.44c0 35.328 28.672 64.512 64.512 64.512h247.296c18.944 0 34.816-15.36 34.816-34.816 0-18.944-15.36-34.816-34.816-34.816H194.56c-16.384 0-29.696-13.312-29.696-29.696V120.32c0-9.728 8.192-17.92 17.92-17.92h665.088c9.728 0 17.92 8.192 17.92 17.92v326.656c0 18.944 15.36 34.816 34.816 34.816s34.816-15.36 34.816-34.816V97.28c-0.512-35.328-29.184-64-64.512-64z" p-id="11723" fill="#409eff"></path><path d="M721.408 330.752h-414.72c-18.944 0-34.816 15.36-34.816 34.816 0 18.944 15.36 34.816 34.816 34.816h414.72c18.944 0 34.816-15.36 34.816-34.816-0.512-19.456-15.872-34.816-34.816-34.816zM722.944 211.456h-414.72c-18.944 0-34.816 15.36-34.816 34.816 0 18.944 15.36 34.816 34.816 34.816h414.72c18.944 0 34.816-15.36 34.816-34.816-0.512-19.456-15.872-34.816-34.816-34.816z" p-id="11724" fill="#409eff"></path><path d="M762.368 555.52c-134.656-10.24-245.248 100.864-235.008 235.008 8.192 105.472 94.208 191.488 199.68 199.68 134.656 10.24 245.248-100.864 235.008-235.008-8.192-105.472-94.208-191.488-199.68-199.68z m-17.92 380.928c-90.624 0-163.84-73.216-163.84-163.84s73.216-163.84 163.84-163.84 163.84 73.216 163.84 163.84-73.216 163.84-163.84 163.84z m27.648-175.104v-97.28c0-14.848-11.776-27.136-27.136-27.136-14.848 0-27.136 11.776-27.136 27.136V773.12c0 7.68 3.072 14.336 8.192 19.456l54.784 54.784c5.12 5.12 11.776 8.192 19.456 8.192 6.656 0 14.336-3.072 19.456-8.192 10.24-10.24 10.24-27.648 0-38.912l-47.616-47.104z" p-id="11725" fill="#409eff"></path></svg>