<?xml version="1.0" standalone="no"?><!DOCTYPE svg PUBLIC "-//W3C//DTD SVG 1.1//EN" "http://www.w3.org/Graphics/SVG/1.1/DTD/svg11.dtd"><svg t="1711364599404" class="icon" viewBox="0 0 1066 1024" version="1.1" xmlns="http://www.w3.org/2000/svg" p-id="2056" xmlns:xlink="http://www.w3.org/1999/xlink" width="49.96875" height="48"><path d="M106.154667 42.666667a85.333333 85.333333 0 0 0-85.333334 85.333333v597.333333a85.333333 85.333333 0 0 0 85.333334 85.333334h384v85.333333h-170.666667a42.666667 42.666667 0 1 0 0 85.333333h426.666667a42.666667 42.666667 0 1 0 0-85.333333h-170.666667v-85.333333h384a85.333333 85.333333 0 0 0 85.333333-85.333334V128a85.333333 85.333333 0 0 0-85.333333-85.333333h-853.333333z m170.666666 213.333333h512a42.666667 42.666667 0 1 1 0 85.333333h-512a42.666667 42.666667 0 0 1 0-85.333333z m-42.666666 256a42.666667 42.666667 0 0 1 42.666666-42.666667h298.666667a42.666667 42.666667 0 1 1 0 85.333334h-298.666667a42.666667 42.666667 0 0 1-42.666666-42.666667z" p-id="2057" fill="#ffffff"></path></svg>