<?xml version="1.0" standalone="no"?><!DOCTYPE svg PUBLIC "-//W3C//DTD SVG 1.1//EN" "http://www.w3.org/Graphics/SVG/1.1/DTD/svg11.dtd"><svg t="1712127065227" class="icon" viewBox="0 0 1024 1024" version="1.1" xmlns="http://www.w3.org/2000/svg" p-id="54659" xmlns:xlink="http://www.w3.org/1999/xlink" width="200" height="200"><path d="M376.137143 21.68c90.262857-28.96 189.794286-28.114286 279.531428 2.411429 40.651429 13.817143 79.268571 33.657143 114 58.902857 57.725714 41.817143 104.708571 98.96 132.297143 164.868571 18.525714 43.794286 28.011429 91.28 28.32 138.811429v2.628571c-0.365714 37.508571-3.702857 75.325714-14.377143 111.428572-10.102857 34.994286-27.542857 67.737143-50.468571 96-13.371429 16.994286-29.554286 31.451429-45.428571 46.022857-10.937143 10.091429-22.502857 19.462857-33.68 29.268571-55.702857 49.874286-95.04 117.657143-110.64 190.788572-1.257143 8.274286-8.971429 15.005714-17.382858 14.822857-95.257143 0.022857-190.514286-0.011429-285.76 0.011428-4.148571-0.057143-8.491429 0.411429-12.388571-1.314285-5.691429-2.205714-9.805714-7.6-10.845714-13.554286-6.971429-35.748571-19.92-70.342857-38.514286-101.68-18.731429-31.851429-43.051429-60.091429-69.737143-85.52-16.571429-15.851429-34.182857-30.548571-50.8-46.331429-8.971429-8.582857-18.4-16.834286-25.805714-26.868571C118.468571 543.645714 93.428571 468.948571 94.685714 394.365714c-0.171429-33.28 3.405714-66.651429 12.068572-98.834285 16.902857-64.468571 52.114286-123.657143 99.2-170.662858 47.314286-47.451429 106.422857-82.788571 170.182857-103.188571m-35.257143 63.074286c-64.411429 30.754286-120.342857 80.102857-156.4 141.931428-25.931429 44.171429-41.245714 94.617143-43.577143 145.828572-0.811429 22.137143-1.108571 44.422857 2.285714 66.377143 5.691429 41.302857 20.765714 81.234286 43.554286 116.114285 7.428571 10.982857 14.902857 22.148571 24.685714 31.2 17.451429 17.291429 36.251429 33.12 54.285715 49.771429 28.64 26.514286 54.971429 55.76 76.16 88.605714 21.337143 32.811429 37.291429 69.074286 47.2 106.925714 0.731429 0.114286 2.182857 0.331429 2.902857 0.434286 81.417143-0.08 162.834286 0.045714 244.251428-0.057143 21.12-77.68 66.182857-148.605714 127.474286-200.8 14.971429-12.388571 29.394286-25.428571 43.497143-38.8 29.222857-27.12 51.577143-61.782857 63.497143-99.885714 8.742857-27.634286 12.365714-56.64 13.428571-85.531429 0.902857-22.182857 0.205714-44.468571-3.188571-66.434285-7.074286-47.371429-25.371429-92.88-52.297143-132.434286-48.445714-71.142857-123.222857-123.051429-205.828571-146.388571-92.651429-26.445714-194.971429-18.674286-281.931429 23.142857z" p-id="54660" fill="#ffffff"></path><path d="M309.497143 278.594286c12.64-13.405714 30.902857-21.268571 49.337143-21.245715 17.702857-0.16 35.302857 6.925714 47.954285 19.302858 35.337143 35.188571 70.468571 70.594286 105.862858 105.725714 32.308571-32.445714 64.742857-64.754286 97.097142-97.154286 5.542857-5.451429 10.788571-11.325714 17.28-15.702857 14.937143-10.457143 34.16-14.445714 52.034286-10.925714 17.417143 3.257143 33.268571 13.691429 43.325714 28.251428 9.245714 13.211429 13.497143 29.771429 11.874286 45.817143-1.474286 15.588571-8.548571 30.548571-19.634286 41.611429-44.502857 44.548571-89.051429 89.062857-133.577142 133.588571-0.034286 63.085714 0.011429 126.182857-0.022858 189.268572 0.068571 21.897143-11.268571 43.348571-29.268571 55.782857-15.977143 11.314286-36.914286 15.131429-55.874286 10.331428-21.017143-5.085714-39.051429-20.811429-47.017143-40.902857-3.382857-8.32-5.028571-17.302857-4.971428-26.274286 0.011429-61.348571-0.034286-122.708571 0.022857-184.057142-0.205714-1.748571 0.617143-4.034286-0.982857-5.302858-44.16-44.148571-88.32-88.297143-132.457143-132.468571-11.897143-11.862857-19.12-28.24-19.851429-45.028571-0.96-18.502857 5.988571-37.28 18.868572-50.617143m36.537143 28.594285c-11.36 7.394286-13.074286 25.165714-3.337143 34.594286 48 48.068571 96.034286 96.102857 144.091428 144.102857 1.074286 1.314286 3.142857 2.342857 2.834286 4.331429-0.022857 68.617143-0.011429 137.245714-0.011428 205.874286-0.228571 7.828571 3.851429 15.588571 10.457142 19.794285 7.108571 4.731429 16.925714 4.891429 24.194286 0.388572 6.617143-3.954286 11.017143-11.428571 11.04-19.165715 0.102857-69.428571-0.068571-138.857143 0.08-208.285714 48.88-48.731429 97.622857-97.611429 146.468572-146.388571 5.931429-5.657143 8.468571-14.594286 6.228571-22.491429-2.262857-8.845714-10.342857-15.828571-19.44-16.708571-6.72-0.822857-13.714286 1.554286-18.525714 6.308571-45.977143 45.725714-91.565714 91.874286-137.702857 137.428572-44.937143-45.142857-90.08-90.091429-135.074286-135.165715-7.348571-9.188571-21.702857-11.702857-31.302857-4.617143zM390.96 910.148571c9.954286-3.165714 20.48-2.194286 30.754286-2.342857 65.131429 0.011429 130.262857-0.011429 195.394285 0.011429 8.308571-0.034286 16.628571 1.68 24.194286 5.142857 19.885714 8.834286 33.577143 29.817143 33.451429 51.611429 0.777143 18.582857-8.16 37.188571-23.211429 48.125714-8.32 6.388571-18.502857 9.577143-28.72 11.302857H403.428571c-4.24-0.697143-8.514286-1.268571-12.628571-2.502857-14.125714-4.068571-26.422857-13.954286-33.6-26.765714-7.805714-13.748571-9.314286-30.685714-5.04-45.817143 5.257143-18.388571 20.377143-33.588571 38.8-38.765715m15.12 43.451429c-6.068571 0.297143-10.948571 6.102857-10.537143 12.102857-0.548571 6.342857 4.8 12.525714 11.245714 12.411429 69.748571 0.057143 139.508571-0.011429 209.257143 0.034285 2.502857 0.011429 5.142857-0.194286 7.325715-1.577142 7.462857-4.148571 7.725714-16.422857 0.628571-21.051429-2.628571-1.988571-6.045714-2.045714-9.177143-2.011429-69.577143 0.091429-139.165714-0.102857-208.742857 0.091429z" p-id="54661" fill="#ffffff"></path></svg>