<?xml version="1.0" standalone="no"?><!DOCTYPE svg PUBLIC "-//W3C//DTD SVG 1.1//EN" "http://www.w3.org/Graphics/SVG/1.1/DTD/svg11.dtd"><svg t="1709532065404" class="icon" viewBox="0 0 1024 1024" version="1.1" xmlns="http://www.w3.org/2000/svg" p-id="5393" xmlns:xlink="http://www.w3.org/1999/xlink" width="128" height="128"><path d="M741.546667 622.08a42.666667 42.666667 0 0 0-24.746667-2.56 27.306667 27.306667 0 0 0-7.68 2.56 32.426667 32.426667 0 0 0-7.68 3.84l-6.4 5.12a44.8 44.8 0 0 0-12.373333 30.293333 42.666667 42.666667 0 0 0 12.373333 30.293334 50.773333 50.773333 0 0 0 14.08 9.386666 42.666667 42.666667 0 0 0 46.506667-9.386666 49.066667 49.066667 0 0 0 8.96-14.08 35.84 35.84 0 0 0 3.413333-16.213334 44.8 44.8 0 0 0-12.373333-30.293333 39.68 39.68 0 0 0-14.08-8.96z m111.786666-166.4V320a128 128 0 0 0-128-128h-33.28l-32.853333-98.986667a42.666667 42.666667 0 0 0-40.533333-29.013333h-213.333334a42.666667 42.666667 0 0 0-40.533333 29.013333L331.946667 192H298.666667a128 128 0 0 0-128 128v135.68a128 128 0 0 0-85.333334 120.32v256a42.666667 42.666667 0 0 0 42.666667 42.666667h42.666667v42.666666a42.666667 42.666667 0 0 0 85.333333 0v-42.666666h512v42.666666a42.666667 42.666667 0 0 0 85.333333 0v-42.666666h42.666667a42.666667 42.666667 0 0 0 42.666667-42.666667v-256a128 128 0 0 0-85.333334-120.32zM436.053333 149.333333h151.893334l14.08 42.666667H421.973333zM256 320a42.666667 42.666667 0 0 1 42.666667-42.666667h426.666666a42.666667 42.666667 0 0 1 42.666667 42.666667v128H256z m597.333333 469.333333H170.666667v-213.333333a42.666667 42.666667 0 0 1 42.666666-42.666667h597.333334a42.666667 42.666667 0 0 1 42.666666 42.666667zM282.453333 622.08a42.666667 42.666667 0 0 0-14.08 8.96 44.8 44.8 0 0 0-12.373333 30.293333 42.666667 42.666667 0 0 0 58.88 39.68 50.773333 50.773333 0 0 0 14.08-9.386666A42.666667 42.666667 0 0 0 341.333333 661.333333a44.8 44.8 0 0 0-12.373333-30.293333 42.666667 42.666667 0 0 0-46.506667-8.96zM554.666667 618.666667h-85.333334a42.666667 42.666667 0 0 0 0 85.333333h85.333334a42.666667 42.666667 0 0 0 0-85.333333z" p-id="5394"></path></svg>